<svg width="34" height="34" viewBox="0 0 34 34" fill="none" xmlns="http://www.w3.org/2000/svg">
<path d="M16.8672 4.24219C14.6725 4.24144 12.5154 4.81514 10.6078 5.90691C8.7002 6.99868 7.10776 8.57096 5.98694 10.4693C4.86612 12.3676 4.25549 14.5266 4.21504 16.7341C4.17459 18.9417 4.70572 21.1219 5.75623 23.0604L4.25932 28.3419C4.20664 28.5274 4.20524 28.7238 4.25526 28.91C4.30527 29.0962 4.40482 29.2651 4.54317 29.3986C4.68153 29.5322 4.85346 29.6252 5.04046 29.6677C5.22745 29.7103 5.42244 29.7007 5.60443 29.64L10.5337 27.9877C12.2138 28.9644 14.0946 29.5392 16.0308 29.6676C17.967 29.796 19.9066 29.4746 21.6995 28.7282C23.4925 27.9819 25.0907 26.8305 26.3706 25.3633C27.6506 23.8961 28.5778 22.1524 29.0807 20.2669C29.5836 18.3815 29.6486 16.405 29.2707 14.4903C28.8928 12.5755 28.0822 10.7739 26.9015 9.22478C25.7208 7.67565 24.2017 6.42055 22.4617 5.55655C20.7218 4.69256 18.8075 4.24284 16.8672 4.24219ZM12.6505 14.8476C12.6505 14.5663 12.7615 14.2966 12.9592 14.0977C13.1569 13.8988 13.4251 13.7871 13.7046 13.7871H20.0297C20.3092 13.7871 20.5774 13.8988 20.7751 14.0977C20.9728 14.2966 21.0838 14.5663 21.0838 14.8476C21.0838 15.1289 20.9728 15.3986 20.7751 15.5975C20.5774 15.7964 20.3092 15.9081 20.0297 15.9081H13.7046C13.4251 15.9081 13.1569 15.7964 12.9592 15.5975C12.7615 15.3986 12.6505 15.1289 12.6505 14.8476ZM13.7046 18.0292H17.9213C18.2009 18.0292 18.469 18.141 18.6667 18.3398C18.8644 18.5387 18.9755 18.8085 18.9755 19.0898C18.9755 19.371 18.8644 19.6408 18.6667 19.8397C18.469 20.0386 18.2009 20.1503 17.9213 20.1503H13.7046C13.4251 20.1503 13.1569 20.0386 12.9592 19.8397C12.7615 19.6408 12.6505 19.371 12.6505 19.0898C12.6505 18.8085 12.7615 18.5387 12.9592 18.3398C13.1569 18.141 13.4251 18.0292 13.7046 18.0292Z" fill="white"/>
</svg>
