<svg width="32" height="32" viewBox="0 0 32 32" fill="none" xmlns="http://www.w3.org/2000/svg">
<path d="M23 12.0002C23 13.3846 22.5895 14.738 21.8203 15.8891C21.0511 17.0403 19.9579 17.9375 18.6788 18.4673C17.3997 18.9971 15.9922 19.1357 14.6344 18.8657C13.2765 18.5956 12.0292 17.9289 11.0503 16.9499C10.0713 15.9709 9.4046 14.7236 9.1345 13.3658C8.86441 12.0079 9.00303 10.6004 9.53284 9.32137C10.0627 8.04228 10.9599 6.94903 12.111 6.17986C13.2622 5.41069 14.6155 5.00015 16 5.00015C17.8565 5.00015 19.637 5.73765 20.9498 7.0504C22.2625 8.36316 23 10.1436 23 12.0002ZM27 12.0002C27.0002 13.6205 26.6417 15.2207 25.9501 16.6861C25.2585 18.1514 24.251 19.4454 23 20.4752V30.0002C23 30.2654 22.8946 30.5197 22.7071 30.7073C22.5196 30.8948 22.2652 31.0002 22 31.0002C21.8449 30.9969 21.6919 30.9629 21.55 30.9002L16 28.1127L10.45 30.9002C10.2968 30.9758 10.1267 31.011 9.95598 31.0022C9.7853 30.9935 9.6197 30.9411 9.475 30.8502C9.32913 30.7616 9.2087 30.6367 9.12545 30.4878C9.0422 30.3388 8.99898 30.1708 9 30.0002V20.4752C7.56992 19.2954 6.46121 17.7733 5.77687 16.0504C5.09253 14.3274 4.85476 12.4594 5.08565 10.6199C5.31653 8.78044 6.00859 7.02916 7.09753 5.52876C8.18646 4.02837 9.63695 2.82753 11.3142 2.0378C12.9915 1.24808 14.8412 0.895089 16.6915 1.01162C18.5417 1.12816 20.3325 1.71044 21.8974 2.70437C23.4624 3.6983 24.7507 5.07164 25.6428 6.69681C26.5349 8.32197 27.0017 10.1462 27 12.0002ZM25 12.0002C25 10.2201 24.4722 8.48006 23.4832 7.00002C22.4943 5.51997 21.0887 4.36642 19.4442 3.68523C17.7996 3.00404 15.99 2.82581 14.2442 3.17308C12.4984 3.52035 10.8947 4.37751 9.63604 5.63619C8.37737 6.89486 7.5202 8.49851 7.17293 10.2443C6.82566 11.9902 7.00389 13.7998 7.68508 15.4443C8.36627 17.0888 9.51982 18.4944 10.9999 19.4834C12.4799 20.4723 14.22 21.0002 16 21.0002C18.3859 20.9968 20.6732 20.0476 22.3603 18.3605C24.0474 16.6733 24.9967 14.3861 25 12.0002Z" fill="white"/>
</svg>
