<svg width="18" height="16" viewBox="0 0 18 16" fill="none" xmlns="http://www.w3.org/2000/svg">
<g clip-path="url(#clip0_1537_1702)">
<path d="M13.8939 15.9991L8.69625 13.2651L3.49737 15.9971L4.4913 10.2089L0.286567 6.10871L6.09854 5.26535L8.69878 -0.000594411L11.2969 5.26645L17.1085 6.11211L12.9023 10.2106L13.8939 15.9991Z" fill="#FFCC00"/>
<path d="M11.315 5.2334C8.68288 8.81649 8.6543 8.85546 8.6543 8.85546L17.0913 6.0926L11.315 5.2334Z" fill="#FFE680"/>
<path d="M8.69763 8.77832V13.2772L3.44629 15.9723L8.69763 8.77832Z" fill="#FFDD55"/>
<path d="M8.69727 8.77832L13.8605 15.8352L12.8914 10.1201L8.69727 8.77832Z" fill="#FFDD55"/>
<path d="M0.321289 6.0977L8.69806 8.77768L6.10989 5.24023L0.321289 6.0977Z" fill="#FFE680"/>
<path d="M8.69727 8.7777V0.0107422L11.2809 5.23844L8.69727 8.7777Z" fill="#FFDD55"/>
<path d="M3.5 15.8996L4.47535 10.1363L8.69833 8.77832L3.5 15.8996Z" fill="#FFD42A"/>
</g>
<defs>
<clipPath id="clip0_1537_1702">
<rect width="16.822" height="16" fill="white" transform="translate(0.288086)"/>
</clipPath>
</defs>
</svg>
